<svg xmlns="http://www.w3.org/2000/svg" width="69.5mm" height="94.9mm" viewBox="0 0 695 949" font-family="URW Gothic"><g transform="translate(30,30)"><rect x="-30" y="-30" width="695" height="979" fill="#FFC97E"/><rect x="-30" y="-30" width="695" height="330" fill="#FFD9A0"/><circle cx="317" cy="320" r="230" fill="#FFE7BC"/><circle cx="317" cy="320" r="160" fill="#FFF1D6"/><text x="520" y="600" font-size="430" font-weight="bold" fill="#FFF1D6" opacity="0.5" text-anchor="middle">0</text><rect x="-30" y="580" width="695" height="130" fill="#E89B54"/><ellipse cx="330" cy="622" rx="270" ry="34" fill="#DD8A48"/><path d="M 120 560 L 665 693 L 665 713 L 90 580 Z" fill="#C97A38" opacity="0.4"/><rect x="540" y="470" width="80" height="14" rx="7" fill="#5A2E14"/><rect x="570" y="484" width="14" height="96" fill="#5A2E14"/><rect x="562" y="440" width="30" height="30" rx="6" fill="#B8651F"/><path d="M 592 448 q 14 6 0 16" fill="none" stroke="#B8651F" stroke-width="5"/><path d="M 570 432 q 4 -10 0 -18 M 584 432 q 4 -10 0 -18" fill="none" stroke="#C97A38" stroke-width="4" stroke-linecap="round"/><rect x="128" y="470" width="380" height="110" rx="26" fill="#5A2E14"/><rect x="106" y="420" width="64" height="150" rx="30" fill="#5A2E14"/><rect x="466" y="420" width="64" height="150" rx="30" fill="#5A2E14"/><g transform="rotate(-14 208 448)"><rect x="168" y="424" width="80" height="48" rx="18" fill="#FFE3A8"/></g><path d="M 250 470 Q 306 426 366 450 Q 416 466 464 450 L 468 470 Z" fill="#FFE3A8"/><path d="M 296 470 L 428 470 L 420 552 Q 392 566 362 556 L 362 520 Q 334 530 308 520 Z" fill="#FFE3A8"/><path d="M 330 480 Q 360 494 396 484 M 320 506 Q 352 518 388 510" fill="none" stroke="#E8A555" stroke-width="3" opacity="0.8"/><ellipse cx="230" cy="612" rx="32" ry="11" fill="#FFE3A8"/><path d="M 206 610 a 13 11 0 0 1 24 -6" fill="#E8A555"/><ellipse cx="298" cy="622" rx="32" ry="11" fill="#FFE3A8"/><path d="M 274 620 a 13 11 0 0 1 24 -6" fill="#E8A555"/><text x="150" y="330" font-size="44" font-weight="bold" font-family="URW Bookman" fill="#B8651F">z</text><text x="185" y="280" font-size="58" font-weight="bold" font-family="URW Bookman" fill="#B8651F" opacity="0.85">z</text><text x="232" y="222" font-size="74" font-weight="bold" font-family="URW Bookman" fill="#B8651F" opacity="0.7">z</text><rect x="-30" y="700" width="695" height="249" fill="#4A2410"/><text x="317" y="782" font-size="38" font-weight="bold" font-family="URW Bookman" fill="#FFE9C2" text-anchor="middle" letter-spacing="2">NAP</text><text x="317" y="844" font-size="24" font-family="Carlito" fill="#FFD9A0" text-anchor="middle">Technically still a chore.</text><g transform="translate(566,64)" stroke="#5A2E14" stroke-width="5" stroke-linecap="round"><circle r="16" fill="#5A2E14" stroke="none"/><path d="M 0 -28 V -36 M 0 28 V 36 M -28 0 H -36 M 28 0 H 36 M -20 -20 L -26 -26 M 20 20 L 26 26 M 20 -20 L 26 -26 M -20 20 L -26 26"/></g><rect x="14" y="14" width="607" height="861" rx="18" fill="none" stroke="#FFF1D6" stroke-width="3" opacity="0.9"/><rect x="24" y="24" width="587" height="841" rx="12" fill="none" stroke="#B8651F" stroke-width="2" opacity="0.8"/><circle cx="84" cy="88" r="48" fill="#FFF1D6" stroke="#5A2E14" stroke-width="4"/><text x="84" y="102" font-size="48" font-weight="bold" fill="#5A2E14" text-anchor="middle">0</text><rect x="68" y="112" width="32" height="5" rx="2.5" fill="#5A2E14"/><g transform="rotate(180 574 824)"><circle cx="574" cy="824" r="40" fill="none" stroke="#FFE9C2" stroke-width="4"/><text x="574" y="836" font-size="40" font-weight="bold" fill="#FFE9C2" text-anchor="middle">0</text><rect x="558" y="844" width="32" height="5" rx="2.5" fill="#FFE9C2"/></g></g></svg>