<svg xmlns="http://www.w3.org/2000/svg" width="69.5mm" height="94.9mm" viewBox="0 0 695 949" font-family="URW Gothic"><g transform="translate(30,30)"><rect x="-30" y="-30" width="695" height="979" fill="#F5A62B"/><circle cx="180" cy="220" r="150" fill="#FFC95C"/><text x="545" y="560" font-size="420" font-weight="bold" fill="#FFE3A8" opacity="0.4" text-anchor="middle">2</text><path d="M -30 90 L 230 90 L 500 700 L -30 700 Z" fill="#FFE3A8" opacity="0.18"/><rect x="-30" y="540" width="695" height="170" fill="#DD7E27"/><ellipse cx="310" cy="600" rx="280" ry="36" fill="#C96A20"/><rect x="-30" y="352" width="180" height="16" rx="6" fill="#5A2E14"/><rect x="-30" y="368" width="160" height="190" fill="#7A4526"/><line x1="86" y1="380" x2="86" y2="546" stroke="#5A2E14" stroke-width="6"/><circle cx="106" cy="460" r="8" fill="#E8A555"/><path d="M 222 520 Q 166 500 178 446" fill="none" stroke="#47250F" stroke-width="22" stroke-linecap="round"/><ellipse cx="300" cy="486" rx="88" ry="66" fill="#47250F"/><circle cx="252" cy="398" r="54" fill="#47250F"/><path d="M 216 366 L 206 320 L 246 342 Z" fill="#47250F"/><path d="M 282 362 L 296 318 L 254 338 Z" fill="#47250F"/><path d="M 232 398 q 8 9 16 0 M 262 398 q 8 9 16 0" fill="none" stroke="#FFE3A8" stroke-width="5" stroke-linecap="round"/><path d="M 250 416 l 6 4 l 6 -4" fill="none" stroke="#FFE3A8" stroke-width="4" stroke-linecap="round"/><path d="M 212 410 l -26 -4 M 214 422 l -25 3 M 292 410 l 26 -4 M 290 422 l 25 3" stroke="#FFE3A8" stroke-width="4" stroke-linecap="round"/><path d="M 390 524 Q 432 568 474 524 Z" fill="#FFE3A8"/><ellipse cx="432" cy="524" rx="42" ry="11" fill="#47250F"/><circle cx="420" cy="516" r="6" fill="#FFF1D6"/><circle cx="440" cy="513" r="6" fill="#FFF1D6"/><path d="M 505 430 l 4 11.2 l 11.2 4 l -11.2 4 l -4 11.2 l -4 -11.2 l -11.2 -4 l 11.2 -4 Z" fill="#FFF1D6" opacity="0.9"/><rect x="-30" y="700" width="695" height="249" fill="#47250F"/><text x="317" y="782" font-size="38" font-weight="bold" font-family="URW Bookman" fill="#FFE9C2" text-anchor="middle" letter-spacing="2">FEED THE CAT</text><text x="317" y="844" font-size="24" font-family="Carlito" fill="#FFD9A0" text-anchor="middle">The cat was fed. The cat disagrees.</text><g transform="translate(566,64)" stroke="#47250F" stroke-width="5" stroke-linecap="round"><circle r="16" fill="#47250F" stroke="none"/><path d="M 0 -28 V -36 M 0 28 V 36 M -28 0 H -36 M 28 0 H 36 M -20 -20 L -26 -26 M 20 20 L 26 26 M 20 -20 L 26 -26 M -20 20 L -26 26"/></g><rect x="14" y="14" width="607" height="861" rx="18" fill="none" stroke="#FFE3A8" stroke-width="2" opacity="0.5"/><circle cx="84" cy="88" r="48" fill="none" stroke="#47250F" stroke-width="4"/><text x="84" y="102" font-size="48" font-weight="bold" fill="#47250F" text-anchor="middle">2</text><rect x="68" y="112" width="32" height="5" rx="2.5" fill="#47250F"/><g transform="rotate(180 574 824)"><circle cx="574" cy="824" r="40" fill="none" stroke="#FFE9C2" stroke-width="4"/><text x="574" y="836" font-size="40" font-weight="bold" fill="#FFE9C2" text-anchor="middle">2</text><rect x="558" y="844" width="32" height="5" rx="2.5" fill="#FFE9C2"/></g></g></svg>