<svg xmlns="http://www.w3.org/2000/svg" width="69.5mm" height="94.9mm" viewBox="0 0 695 949" font-family="URW Gothic"><g transform="translate(30,30)"><rect x="-30" y="-30" width="695" height="979" fill="#F5A62B"/><text x="545" y="560" font-size="420" font-weight="bold" fill="#FFE3A8" opacity="0.4" text-anchor="middle">3</text><rect x="150" y="110" width="340" height="310" rx="10" fill="#FFD9A0"/><circle cx="317" cy="250" r="86" fill="#FFE7BC"/><circle cx="317" cy="250" r="56" fill="#FFF1D6"/><rect x="150" y="110" width="340" height="310" rx="10" fill="none" stroke="#47250F" stroke-width="14"/><line x1="317" y1="118" x2="317" y2="412" stroke="#47250F" stroke-width="10"/><line x1="158" y1="264" x2="482" y2="264" stroke="#47250F" stroke-width="10"/><rect x="126" y="420" width="388" height="20" rx="8" fill="#47250F"/><rect x="-30" y="540" width="695" height="170" fill="#DD7E27"/><ellipse cx="310" cy="600" rx="280" ry="36" fill="#C96A20"/><path d="M 168 356 L 232 356 L 222 420 L 178 420 Z" fill="#B8651F"/><path d="M 186 356 q -20 -50 6 -76 M 214 356 q 20 -46 -4 -74 M 200 356 q 0 -46 0 -60" fill="none" stroke="#47250F" stroke-width="9" stroke-linecap="round"/><circle cx="192" cy="272" r="10" fill="#47250F"/><circle cx="210" cy="276" r="9" fill="#47250F"/><circle cx="200" cy="288" r="9" fill="#47250F"/><path d="M 284 372 L 350 372 L 341 420 L 293 420 Z" fill="#B8651F"/><path d="M 317 372 v -50 M 317 340 q -22 -6 -24 -30 M 317 352 q 22 -8 24 -32" fill="none" stroke="#47250F" stroke-width="9" stroke-linecap="round"/><path d="M 398 362 L 460 362 L 451 420 L 407 420 Z" fill="#B8651F"/><path d="M 414 362 q -8 -34 14 -50 M 442 362 q 10 -30 -8 -48" fill="none" stroke="#47250F" stroke-width="8" stroke-linecap="round"/><g transform="rotate(-22 520 300)"><rect x="470" y="266" width="104" height="72" rx="18" fill="#47250F"/><path d="M 470 290 L 428 318 L 470 316 Z" fill="#47250F"/><path d="M 500 266 q 26 -28 52 0" fill="none" stroke="#47250F" stroke-width="10"/></g><ellipse cx="446" cy="330" rx="5" ry="9" fill="#FFF1D6"/><ellipse cx="438" cy="352" rx="5" ry="9" fill="#FFF1D6"/><ellipse cx="431" cy="374" rx="5" ry="9" fill="#FFF1D6"/><path d="M 130 480 l 4 11.2 l 11.2 4 l -11.2 4 l -4 11.2 l -4 -11.2 l -11.2 -4 l 11.2 -4 Z" fill="#FFF1D6" opacity="0.8"/><rect x="-30" y="700" width="695" height="249" fill="#47250F"/><text x="317" y="782" font-size="38" font-weight="bold" font-family="URW Bookman" fill="#FFE9C2" text-anchor="middle" letter-spacing="2">WATER THE PLANTS</text><text x="317" y="844" font-size="24" font-family="Carlito" fill="#FFD9A0" text-anchor="middle">Mostly still alive. Mostly.</text><g transform="translate(566,64)" stroke="#47250F" stroke-width="5" stroke-linecap="round"><circle r="16" fill="#47250F" stroke="none"/><path d="M 0 -28 V -36 M 0 28 V 36 M -28 0 H -36 M 28 0 H 36 M -20 -20 L -26 -26 M 20 20 L 26 26 M 20 -20 L 26 -26 M -20 20 L -26 26"/></g><rect x="14" y="14" width="607" height="861" rx="18" fill="none" stroke="#FFE3A8" stroke-width="2" opacity="0.5"/><circle cx="84" cy="88" r="48" fill="none" stroke="#47250F" stroke-width="4"/><text x="84" y="102" font-size="48" font-weight="bold" fill="#47250F" text-anchor="middle">3</text><rect x="68" y="112" width="32" height="5" rx="2.5" fill="#47250F"/><g transform="rotate(180 574 824)"><circle cx="574" cy="824" r="40" fill="none" stroke="#FFE9C2" stroke-width="4"/><text x="574" y="836" font-size="40" font-weight="bold" fill="#FFE9C2" text-anchor="middle">3</text><rect x="558" y="844" width="32" height="5" rx="2.5" fill="#FFE9C2"/></g></g></svg>