<svg xmlns="http://www.w3.org/2000/svg" width="69.5mm" height="94.9mm" viewBox="0 0 695 949" font-family="URW Gothic"><g transform="translate(30,30)"><rect x="-30" y="-30" width="695" height="979" fill="#F5A62B"/><circle cx="180" cy="220" r="150" fill="#FFC95C"/><text x="545" y="560" font-size="420" font-weight="bold" fill="#FFE3A8" opacity="0.4" text-anchor="middle">4</text><path d="M -30 90 L 230 90 L 500 700 L -30 700 Z" fill="#FFE3A8" opacity="0.18"/><rect x="-30" y="540" width="695" height="170" fill="#DD7E27"/><ellipse cx="310" cy="600" rx="280" ry="36" fill="#C96A20"/><rect x="486" y="200" width="179" height="350" fill="#7A4526"/><rect x="502" y="216" width="147" height="334" fill="#5A2E14"/><circle cx="522" cy="396" r="9" fill="#E8A555"/><rect x="130" y="446" width="86" height="104" rx="10" fill="#5A2E14"/><rect x="120" y="432" width="106" height="18" rx="8" fill="#7A4526"/><rect x="158" y="418" width="30" height="14" rx="6" fill="#7A4526"/><ellipse cx="320" cy="474" rx="96" ry="84" fill="#47250F"/><path d="M 300 398 L 290 368 L 314 390 Z" fill="#47250F"/><path d="M 340 396 L 352 366 L 328 388 Z" fill="#47250F"/><circle cx="320" cy="398" r="13" fill="#47250F"/><path d="M 308 404 q 12 8 24 0" fill="none" stroke="#6E4A2A" stroke-width="4" stroke-linecap="round"/><path d="M 268 470 q 20 24 52 26 M 296 428 q 14 12 34 12" fill="none" stroke="#6E4A2A" stroke-width="5" stroke-linecap="round"/><path d="M 300 330 q 10 -16 0 -32 q -10 -16 0 -30" fill="none" stroke="#FFF1D6" stroke-width="6" stroke-linecap="round" opacity="0.85"/><path d="M 348 336 q 10 -14 0 -28 q -10 -14 0 -26" fill="none" stroke="#FFF1D6" stroke-width="6" stroke-linecap="round" opacity="0.65"/><path d="M 172 402 q 8 -12 0 -24" fill="none" stroke="#FFF1D6" stroke-width="5" stroke-linecap="round" opacity="0.7"/><circle cx="404" cy="330" r="5" fill="#47250F"/><path d="M 398 324 q -8 -8 -2 -14 M 410 324 q 8 -8 2 -14" fill="none" stroke="#47250F" stroke-width="3" stroke-linecap="round"/><path d="M 416 344 q 14 8 10 22" fill="none" stroke="#47250F" stroke-width="3" stroke-dasharray="2 6" stroke-linecap="round"/><rect x="-30" y="700" width="695" height="249" fill="#47250F"/><text x="317" y="752" font-size="38" font-weight="bold" font-family="URW Bookman" fill="#FFE9C2" text-anchor="middle" letter-spacing="2">TAKE OUT</text><text x="317" y="796" font-size="38" font-weight="bold" font-family="URW Bookman" fill="#FFE9C2" text-anchor="middle" letter-spacing="2">THE TRASH</text><text x="317" y="844" font-size="24" font-family="Carlito" fill="#FFD9A0" text-anchor="middle">Somehow heavier every week.</text><g transform="translate(566,64)" stroke="#47250F" stroke-width="5" stroke-linecap="round"><circle r="16" fill="#47250F" stroke="none"/><path d="M 0 -28 V -36 M 0 28 V 36 M -28 0 H -36 M 28 0 H 36 M -20 -20 L -26 -26 M 20 20 L 26 26 M 20 -20 L 26 -26 M -20 20 L -26 26"/></g><rect x="14" y="14" width="607" height="861" rx="18" fill="none" stroke="#FFE3A8" stroke-width="2" opacity="0.5"/><circle cx="84" cy="88" r="48" fill="none" stroke="#47250F" stroke-width="4"/><text x="84" y="102" font-size="48" font-weight="bold" fill="#47250F" text-anchor="middle">4</text><rect x="68" y="112" width="32" height="5" rx="2.5" fill="#47250F"/><g transform="rotate(180 574 824)"><circle cx="574" cy="824" r="40" fill="none" stroke="#FFE9C2" stroke-width="4"/><text x="574" y="836" font-size="40" font-weight="bold" fill="#FFE9C2" text-anchor="middle">4</text><rect x="558" y="844" width="32" height="5" rx="2.5" fill="#FFE9C2"/></g></g></svg>