<svg xmlns="http://www.w3.org/2000/svg" width="69.5mm" height="94.9mm" viewBox="0 0 695 949" font-family="URW Gothic"><g transform="translate(30,30)"><rect x="-30" y="-30" width="695" height="979" fill="#F5A62B"/><circle cx="180" cy="220" r="150" fill="#FFC95C"/><text x="545" y="560" font-size="420" font-weight="bold" fill="#FFE3A8" opacity="0.4" text-anchor="middle">5</text><path d="M -30 90 L 230 90 L 500 700 L -30 700 Z" fill="#FFE3A8" opacity="0.18"/><rect x="-30" y="540" width="695" height="170" fill="#DD7E27"/><ellipse cx="310" cy="600" rx="280" ry="36" fill="#C96A20"/><rect x="400" y="470" width="200" height="16" rx="7" fill="#5A2E14"/><rect x="418" y="486" width="14" height="80" fill="#5A2E14"/><rect x="568" y="486" width="14" height="80" fill="#5A2E14"/><rect x="436" y="442" width="128" height="28" rx="9" fill="#FFF1D6"/><rect x="444" y="414" width="112" height="28" rx="9" fill="#E8A555"/><rect x="452" y="386" width="96" height="28" rx="9" fill="#FFE3A8"/><line x1="500" y1="392" x2="500" y2="408" stroke="#C98A48" stroke-width="4"/><path d="M 150 442 L 344 442 L 322 566 L 172 566 Z" fill="#B8651F"/><path d="M 158 478 h 178 M 166 514 h 162 M 173 548 h 148" stroke="#8A4A16" stroke-width="6"/><circle cx="205" cy="428" r="34" fill="#FFF1D6"/><circle cx="252" cy="414" r="38" fill="#E8A555"/><circle cx="298" cy="430" r="32" fill="#C96A20"/><circle cx="230" cy="404" r="24" fill="#FFE3A8"/><path d="M 282 414 q 16 -12 34 -2" fill="none" stroke="#A85618" stroke-width="4" stroke-linecap="round"/><g transform="rotate(6 340 470)"><path d="M 322 446 L 358 446 L 354 514 Q 340 526 326 514 Z" fill="#FFF1D6"/><path d="M 330 460 h 20" stroke="#E8A555" stroke-width="3"/></g><path d="M 120 360 l 4 11.2 l 11.2 4 l -11.2 4 l -4 11.2 l -4 -11.2 l -11.2 -4 l 11.2 -4 Z" fill="#FFF1D6" opacity="0.8"/><circle cx="392" cy="330" r="4.5" fill="#FFF1D6" opacity="0.7"/><rect x="-30" y="700" width="695" height="249" fill="#47250F"/><text x="317" y="782" font-size="38" font-weight="bold" font-family="URW Bookman" fill="#FFE9C2" text-anchor="middle" letter-spacing="2">FOLD THE LAUNDRY</text><text x="317" y="844" font-size="24" font-family="Carlito" fill="#FFD9A0" text-anchor="middle">The chair is not a closet.</text><g transform="translate(566,64)" stroke="#47250F" stroke-width="5" stroke-linecap="round"><circle r="16" fill="#47250F" stroke="none"/><path d="M 0 -28 V -36 M 0 28 V 36 M -28 0 H -36 M 28 0 H 36 M -20 -20 L -26 -26 M 20 20 L 26 26 M 20 -20 L 26 -26 M -20 20 L -26 26"/></g><rect x="14" y="14" width="607" height="861" rx="18" fill="none" stroke="#FFE3A8" stroke-width="2" opacity="0.5"/><circle cx="84" cy="88" r="48" fill="none" stroke="#47250F" stroke-width="4"/><text x="84" y="102" font-size="48" font-weight="bold" fill="#47250F" text-anchor="middle">5</text><rect x="68" y="112" width="32" height="5" rx="2.5" fill="#47250F"/><g transform="rotate(180 574 824)"><circle cx="574" cy="824" r="40" fill="none" stroke="#FFE9C2" stroke-width="4"/><text x="574" y="836" font-size="40" font-weight="bold" fill="#FFE9C2" text-anchor="middle">5</text><rect x="558" y="844" width="32" height="5" rx="2.5" fill="#FFE9C2"/></g></g></svg>