<svg xmlns="http://www.w3.org/2000/svg" width="69.5mm" height="94.9mm" viewBox="0 0 695 949" font-family="URW Gothic"><g transform="translate(30,30)"><rect x="-30" y="-30" width="695" height="979" fill="#F5A62B"/><circle cx="180" cy="220" r="150" fill="#FFC95C"/><text x="545" y="560" font-size="420" font-weight="bold" fill="#FFE3A8" opacity="0.4" text-anchor="middle">6</text><path d="M -30 90 L 230 90 L 500 700 L -30 700 Z" fill="#FFE3A8" opacity="0.18"/><rect x="-30" y="540" width="695" height="170" fill="#DD7E27"/><ellipse cx="310" cy="600" rx="280" ry="36" fill="#C96A20"/><rect x="-50" y="420" width="150" height="160" rx="26" fill="#7A4526"/><rect x="60" y="400" width="46" height="120" rx="22" fill="#7A4526"/><circle cx="556" cy="306" r="72" fill="#FFE3A8" opacity="0.25"/><path d="M 528 292 L 584 292 L 574 330 L 538 330 Z" fill="#47250F"/><rect x="551" y="330" width="10" height="216" fill="#47250F"/><ellipse cx="556" cy="550" rx="34" ry="10" fill="#47250F"/><g transform="rotate(-9 320 470)"><rect x="345" y="240" width="70" height="20" rx="10" fill="#47250F"/><path d="M 378 260 L 348 424" stroke="#47250F" stroke-width="15" stroke-linecap="round"/><rect x="300" y="420" width="76" height="126" rx="32" fill="#47250F"/><rect x="317" y="448" width="42" height="70" rx="18" fill="#F5A62B" opacity="0.35"/><rect x="262" y="530" width="140" height="42" rx="19" fill="#47250F"/><circle cx="300" cy="562" r="12" fill="#F5A62B"/><circle cx="372" cy="562" r="12" fill="#F5A62B"/></g><path d="M 300 540 Q 210 580 130 562 Q 80 552 34 560" fill="none" stroke="#47250F" stroke-width="7" stroke-linecap="round"/><circle cx="196" cy="508" r="6" fill="#FFF1D6" opacity="0.9"/><circle cx="160" cy="478" r="4.5" fill="#FFF1D6" opacity="0.7"/><circle cx="216" cy="462" r="4" fill="#FFF1D6" opacity="0.8"/><circle cx="246" cy="500" r="5" fill="#FFF1D6" opacity="0.85"/><path d="M 134 516 l 4 11.2 l 11.2 4 l -11.2 4 l -4 11.2 l -4 -11.2 l -11.2 -4 l 11.2 -4 Z" fill="#FFF1D6" opacity="0.8"/><path d="M 247 433 l 3 8.399999999999999 l 8.399999999999999 3 l -8.399999999999999 3 l -3 8.399999999999999 l -3 -8.399999999999999 l -8.399999999999999 -3 l 8.399999999999999 -3 Z" fill="#FFF1D6" opacity="0.7"/><rect x="-30" y="700" width="695" height="249" fill="#47250F"/><text x="317" y="752" font-size="38" font-weight="bold" font-family="URW Bookman" fill="#FFE9C2" text-anchor="middle" letter-spacing="2">VACUUM THE</text><text x="317" y="796" font-size="38" font-weight="bold" font-family="URW Bookman" fill="#FFE9C2" text-anchor="middle" letter-spacing="2">LIVING ROOM</text><text x="317" y="844" font-size="24" font-family="Carlito" fill="#FFD9A0" text-anchor="middle">The dust will win. It always wins.</text><g transform="translate(566,64)" stroke="#47250F" stroke-width="5" stroke-linecap="round"><circle r="16" fill="#47250F" stroke="none"/><path d="M 0 -28 V -36 M 0 28 V 36 M -28 0 H -36 M 28 0 H 36 M -20 -20 L -26 -26 M 20 20 L 26 26 M 20 -20 L 26 -26 M -20 20 L -26 26"/></g><rect x="14" y="14" width="607" height="861" rx="18" fill="none" stroke="#FFE3A8" stroke-width="2" opacity="0.5"/><circle cx="84" cy="88" r="48" fill="none" stroke="#47250F" stroke-width="4"/><text x="84" y="102" font-size="48" font-weight="bold" fill="#47250F" text-anchor="middle">6</text><rect x="68" y="112" width="32" height="5" rx="2.5" fill="#47250F"/><g transform="rotate(180 574 824)"><circle cx="574" cy="824" r="40" fill="none" stroke="#FFE9C2" stroke-width="4"/><text x="574" y="836" font-size="40" font-weight="bold" fill="#FFE9C2" text-anchor="middle">6</text><rect x="558" y="844" width="32" height="5" rx="2.5" fill="#FFE9C2"/></g></g></svg>