<svg xmlns="http://www.w3.org/2000/svg" width="69.5mm" height="94.9mm" viewBox="0 0 695 949" font-family="URW Gothic"><g transform="translate(30,30)"><rect x="-30" y="-30" width="695" height="979" fill="#232E52"/><text x="545" y="560" font-size="420" font-weight="bold" fill="#31407A" opacity="0.7" text-anchor="middle">1</text><circle cx="317" cy="345" r="165" fill="#8FA2DC"/><circle cx="255" cy="285" r="26" fill="#7C8FCB"/><circle cx="392" cy="415" r="17" fill="#7C8FCB"/><circle cx="380" cy="252" r="11" fill="#7C8FCB"/><rect x="-30" y="580" width="695" height="150" fill="#1A2440"/><path d="M 250 520 L 665 646 L 665 716 L 205 548 Z" fill="#141B31" opacity="0.7"/><g fill="#101830"><rect x="277" y="248" width="86" height="140" rx="38"/><rect x="279" y="238" width="16" height="70" rx="8"/><rect x="299" y="228" width="16" height="70" rx="8"/><rect x="319" y="232" width="16" height="70" rx="8"/><rect x="339" y="242" width="16" height="70" rx="8"/><ellipse cx="272" cy="330" rx="16" ry="30" transform="rotate(24 272 330)"/><rect x="292" y="378" width="56" height="96" rx="18"/></g><rect x="286" y="462" width="68" height="22" rx="10" fill="#FFE9B8"/><path d="M 196 268 l -34 -12 M 200 300 l -38 0 M 196 332 l -34 12" stroke="#FFE9B8" stroke-width="6" stroke-linecap="round"/><path d="M 96 136 l 5 14.0 l 14.0 5 l -14.0 5 l -5 14.0 l -5 -14.0 l -14.0 -5 l 14.0 -5 Z" fill="#FFE9B8" opacity="1.0"/><path d="M 540 196 l 4 11.2 l 11.2 4 l -11.2 4 l -4 11.2 l -4 -11.2 l -11.2 -4 l 11.2 -4 Z" fill="#FFE9B8" opacity="0.7"/><path d="M 120 411 l 3 8.399999999999999 l 8.399999999999999 3 l -8.399999999999999 3 l -3 8.399999999999999 l -3 -8.399999999999999 l -8.399999999999999 -3 l 8.399999999999999 -3 Z" fill="#FFE9B8" opacity="0.5"/><rect x="-30" y="700" width="695" height="249" fill="#101830"/><text x="317" y="782" font-size="38" font-weight="bold" font-family="URW Bookman" fill="#FFE9C2" text-anchor="middle" letter-spacing="2">“I’M BUSY”</text><text x="317" y="832" font-size="24" font-weight="bold" font-family="Carlito" fill="#C7D3F2" text-anchor="middle">Choose a player;</text><text x="317" y="862" font-size="24" font-weight="bold" font-family="Carlito" fill="#C7D3F2" text-anchor="middle">they skip their next turn.</text><path d="M 580 48 a 22 22 0 1 0 10 42 a 17 17 0 1 1 -10 -42 Z" fill="#FFE9B8"/><rect x="14" y="14" width="607" height="861" rx="18" fill="none" stroke="#8FA2DC" stroke-width="2" opacity="0.4"/><circle cx="84" cy="88" r="48" fill="none" stroke="#FFE9C2" stroke-width="4"/><text x="84" y="102" font-size="48" font-weight="bold" fill="#FFE9C2" text-anchor="middle">1</text><rect x="68" y="112" width="32" height="5" rx="2.5" fill="#FFE9C2"/><g transform="rotate(180 574 824)"><circle cx="574" cy="824" r="40" fill="none" stroke="#FFE9C2" stroke-width="4"/><text x="574" y="836" font-size="40" font-weight="bold" fill="#FFE9C2" text-anchor="middle">1</text><rect x="558" y="844" width="32" height="5" rx="2.5" fill="#FFE9C2"/></g></g></svg>