<svg xmlns="http://www.w3.org/2000/svg" width="69.5mm" height="94.9mm" viewBox="0 0 695 949" font-family="URW Gothic"><g transform="translate(30,30)"><rect x="-30" y="-30" width="695" height="979" fill="#EDEFE9"/><circle cx="317" cy="400" r="245" fill="#FFF3D6" opacity="0.6"/><rect x="14" y="14" width="607" height="861" rx="18" fill="none" stroke="#F5A62B" stroke-width="3" opacity="0.85"/><rect x="24" y="24" width="587" height="841" rx="12" fill="none" stroke="#C9CEC2" stroke-width="2"/><rect x="596" y="180" width="22" height="260" rx="11" fill="#D7DBD2" stroke="#B9BFB0" stroke-width="3"/><circle cx="90" cy="140" r="2.5" fill="#C9CEC2"/><circle cx="520" cy="110" r="2.5" fill="#C9CEC2"/><circle cx="140" cy="820" r="2.5" fill="#C9CEC2"/><circle cx="500" cy="770" r="2.5" fill="#C9CEC2"/><circle cx="60" cy="500" r="2.5" fill="#C9CEC2"/><g transform="rotate(14 505 210)"><path d="M 505 186 l 7 15 l 17 2 l -12 12 l 3 17 l -15 -8 l -15 8 l 3 -17 l -12 -12 l 17 -2 Z" fill="#20635C"/></g><path d="M 96 348 c -10 -12 -28 -4 -28 10 c 0 12 14 20 28 30 c 14 -10 28 -18 28 -30 c 0 -14 -18 -22 -28 -10 Z" fill="#E0442E"/><g transform="rotate(-7 470 600)"><rect x="388" y="568" width="168" height="66" rx="30" fill="#E0442E"/><path d="M 420 630 L 404 662 L 448 632 Z" fill="#E0442E"/><text x="472" y="612" font-size="32" font-weight="bold" font-family="URW Bookman" fill="#FFF6E8" text-anchor="middle" letter-spacing="1">NOT ME!</text></g><g transform="rotate(8 120 660)"><rect x="70" y="600" width="100" height="118" fill="#FFFDF6" stroke="#D8D2C4" stroke-width="2"/><rect x="80" y="610" width="80" height="80" fill="#FFD9A0"/><circle cx="120" cy="650" r="22" fill="#F5A62B"/></g><circle cx="120" cy="606" r="12" fill="#20635C"/><g transform="rotate(-3 317 420)"><rect x="162" y="252" width="322" height="352" fill="#3C332B" opacity="0.16"/><rect x="150" y="240" width="322" height="350" fill="#FFDE59"/><path d="M 472 510 L 472 590 L 392 590 Z" fill="#E3BE3B"/><text x="311" y="332" font-size="56" font-family="Z003" font-style="italic" fill="#3C332B" text-anchor="middle">Chore list</text><line x1="196" y1="352" x2="426" y2="352" stroke="#3C332B" stroke-width="3" opacity="0.5"/><rect x="196" y="382" width="22" height="22" fill="none" stroke="#3C332B" stroke-width="3.5"/><line x1="236" y1="395" x2="420" y2="393" stroke="#3C332B" stroke-width="5" stroke-linecap="round" opacity="0.75"/><rect x="196" y="428" width="22" height="22" fill="none" stroke="#3C332B" stroke-width="3.5"/><line x1="236" y1="441" x2="380" y2="439" stroke="#3C332B" stroke-width="5" stroke-linecap="round" opacity="0.75"/><rect x="196" y="474" width="22" height="22" fill="none" stroke="#3C332B" stroke-width="3.5"/><line x1="236" y1="487" x2="404" y2="485" stroke="#3C332B" stroke-width="5" stroke-linecap="round" opacity="0.75"/><rect x="196" y="520" width="22" height="22" fill="none" stroke="#3C332B" stroke-width="3.5"/><line x1="236" y1="533" x2="356" y2="531" stroke="#3C332B" stroke-width="5" stroke-linecap="round" opacity="0.75"/><path d="M 194 390 q 14 -20 26 0 q -16 22 -26 0" fill="none" stroke="#E0442E" stroke-width="0" opacity="0"/></g><ellipse cx="317" cy="264" rx="30" ry="8" fill="#3C332B" opacity="0.2"/><circle cx="317" cy="250" r="27" fill="#E0442E"/><ellipse cx="308" cy="240" rx="11" ry="7" fill="#FFFFFF" opacity="0.4"/><path d="M 219 796 a 98 98 0 0 1 196 0 Z" fill="#FFD9A0"/><path d="M 317 672 v -22 M 244 700 l -16 -16 M 390 700 l 16 -16 M 208 748 l -22 -8 M 426 748 l 22 -8" stroke="#F5A62B" stroke-width="6" stroke-linecap="round"/><text x="317" y="768" font-size="54" font-weight="bold" font-family="URW Bookman" fill="#B8651F" text-anchor="middle" letter-spacing="3">LAZY SUNDAY</text><rect x="219" y="796" width="196" height="4" rx="2" fill="#F5A62B"/><text x="317" y="828" font-size="20" font-family="Carlito" fill="#8A8172" text-anchor="middle" letter-spacing="2">playlazysunday.com</text></g></svg>